<?xml version="1.0" encoding="iso-8859-1"?>
<!-- Generator: Adobe Illustrator 19.0.0, SVG Export Plug-In . SVG Version: 6.00 Build 0)  -->
<svg version="1.1" id="Layer_1" xmlns="http://www.w3.org/2000/svg" xmlns:xlink="http://www.w3.org/1999/xlink" x="0px" y="0px"
	 viewBox="0 0 512 512" style="enable-background:new 0 0 512 512;" xml:space="preserve">
<g>
	<g>
		<polygon points="397.501,228.511 223.608,228.511 223.608,244.184 386.238,244.184 456.183,452.119 55.815,452.119 
			125.594,244.184 136.882,244.184 136.882,228.511 114.321,228.511 39.706,450.857 39.706,467.792 472.294,467.792 
			472.294,450.855 		"/>
	</g>
</g>
<g>
	<g>
		<path d="M163.943,148.396c-10.936,0-19.832,8.897-19.832,19.833v83.972h15.674V168.23c0-2.294,1.866-4.16,4.159-4.16
			c2.294,0,4.159,1.866,4.159,4.16v19.993h15.673V168.23C183.776,157.293,174.879,148.396,163.943,148.396z"/>
	</g>
</g>
<g>
	<g>
		<path d="M219.925,148.396c-10.936,0-19.832,8.897-19.832,19.833v83.972h15.674V168.23c0-2.294,1.866-4.16,4.16-4.16
			c2.294,0,4.159,1.866,4.159,4.16v19.993h15.673V168.23C239.758,157.294,230.861,148.396,219.925,148.396z"/>
	</g>
</g>
<g>
	<g>
		<rect x="168.229" y="196.117" width="24.033" height="15.674"/>
	</g>
</g>
<g>
	<g>
		<rect x="168.229" y="228.509" width="24.033" height="15.673"/>
	</g>
</g>
<g>
	<g>
		<polygon points="421.449,196.119 223.608,196.119 223.608,211.792 410.274,211.792 496.327,461.447 496.327,491.825 
			15.673,491.825 15.673,461.445 101.557,211.792 136.882,211.792 136.882,196.119 90.374,196.119 0.426,457.585 0,458.824 
			0,507.499 512,507.499 512,458.822 		"/>
	</g>
</g>
<g>
	<g>
		<rect x="136.882" y="276.574" width="79.412" height="15.673"/>
	</g>
</g>
<g>
	<g>
		<rect x="216.294" y="300.607" width="31.347" height="15.673"/>
	</g>
</g>
<g>
	<g>
		<rect x="152.555" y="347.627" width="31.347" height="15.674"/>
	</g>
</g>
<g>
	<g>
		<rect x="183.902" y="396.737" width="135.837" height="15.673"/>
	</g>
</g>
<g>
	<g>
		<rect x="319.739" y="412.411" width="48.065" height="15.673"/>
	</g>
</g>
<g>
	<g>
		<rect x="103.445" y="420.77" width="33.437" height="15.673"/>
	</g>
</g>
<g>
	<g>
		<rect x="95.086" y="381.064" width="32.392" height="15.673"/>
	</g>
</g>
<g>
	<g>
		<rect x="311.38" y="268.215" width="32.392" height="15.673"/>
	</g>
</g>
<g>
	<g>
		<rect x="343.771" y="292.247" width="24.033" height="15.673"/>
	</g>
</g>
<g>
	<g>
		<rect x="343.771" y="331.954" width="24.033" height="15.673"/>
	</g>
</g>
<g>
	<g>
		<rect x="375.118" y="355.986" width="33.437" height="15.673"/>
	</g>
</g>
<g>
	<g>
		<rect y="164.77" width="136.882" height="15.673"/>
	</g>
</g>
<g>
	<g>
		<rect x="247.641" y="164.77" width="264.359" height="15.673"/>
	</g>
</g>
<g>
	<g>
		<rect y="99.986" width="512" height="15.673"/>
	</g>
</g>
<g>
	<g>
		<path d="M439.25,75.956c-4.201-39.998-38.192-71.454-79.371-71.454c-41.178,0-75.169,31.457-79.371,71.454H0v15.673h512V75.956
			H439.25z M296.299,75.956c4.097-31.548,31.039-55.781,63.581-55.781c32.542,0,59.484,24.233,63.581,55.781H296.299z"/>
	</g>
</g>
<g>
</g>
<g>
</g>
<g>
</g>
<g>
</g>
<g>
</g>
<g>
</g>
<g>
</g>
<g>
</g>
<g>
</g>
<g>
</g>
<g>
</g>
<g>
</g>
<g>
</g>
<g>
</g>
<g>
</g>
</svg>
